inDegrees=yes
name=ouput_greeting.mot
DataType=double
version=3
OpenSimVersion=4.5
endheader
time	pelvis_tilt	pelvis_list	pelvis_rotation	pelvis_tx	pelvis_ty	pelvis_tz	hip_flexion_r	hip_adduction_r	hip_rotation_r	knee_angle_r	knee_angle_r_beta	ankle_angle_r	subtalar_angle_r	mtp_angle_r	hip_flexion_l	hip_adduction_l	hip_rotation_l	knee_angle_l	knee_angle_l_beta	ankle_angle_l	subtalar_angle_l	mtp_angle_l	lumbar_extension	lumbar_bending	lumbar_rotation	arm_flex_r	arm_add_r	arm_rot_r	elbow_flex_r	pro_sup_r	wrist_flex_r	wrist_dev_r	arm_flex_l	arm_add_l	arm_rot_l	elbow_flex_l	pro_sup_l	wrist_flex_l	wrist_dev_l
0.7115384615384618	2.063848964355266	-10.90458246031069	-169.3929482299853	-1.77988410836742e-37	0.93	-1.275422472678934e-29	-1.083331317102378	-10.76537786647235	3.825010547414117	0.5435446745299658	0.009486644202228865	-2.505826383405577	-6.234861794653488e-15	-1.914423486551827e-23	-1.247902498917702	10.99534041706849	-2.470682859750577	0.2226450526302781	0.003885889231674413	-2.50582638340624	9.4111226209121e-20	-4.583989044372944e-23	-2.050207155137027e-26	-3.392702463076728e-23	-7.05657622447779e-28	-5.62219243365157e-14	-9.368498291317109e-18	3.714103526341708e-14	3.839263699887474e-14	1.332628567725852e-14	7.599340456370322e-23	-2.278695875832417e-23	2.359252273207594e-14	4.658571452876122e-14	4.429647856516855e-14	3.709591219862705e-14	0	1.682934373718294e-22	5.401530597135202e-23
0.7307692307692311	1.537892992103219	-10.52516132050706	-169.9546866178753	0	0.93	0	-1.66255630838297	-10.29975651866916	4.164719249870013	0.5349495049495218	0.009336630193282857	-2.526044109024117	0	0	-1.386285892506375	10.77417066349502	-5.165153023042115	0.3997610308336647	0.00697714620921402	-2.526044109018515	0	0	0	0	0	0	0	0	0	0	0	0	0	0	0	0	0	0	0
0.7500000000000003	1.046872240942393	-12.20250014538186	-170.5830966698721	0	0.93	0	-2.460475399931791	-11.97823378298419	4.641514350762115	0.4049059577143728	0.007066942123056739	-2.580238147580189	5.158711275739038e-15	-4.550725900186198e-16	0.2761883299312839	12.62321676241577	-10.05807426796102	2.626736114858506	0.04584519378532488	-2.580238147574751	2.98045073492246e-15	-7.665519928979558e-16	3.550683384841395e-26	7.528375641638632e-19	5.335432753866734e-26	-1.398766595101666e-14	1.649258641591883e-18	4.593113725445828e-14	0	1.276451880066814e-14	-4.18708818092103e-19	-2.752724315949684e-17	3.814871308239993e-14	-1.995701166882005e-15	2.669118859353888e-14	0	0	-4.107772078059405e-18	2.163132148382078e-17
0.7692307692307696	0.5580096628541923	-13.0397359115067	-171.2491953556132	-1.159591624404581e-39	0.93	-5.17811153863549e-22	-2.710317267538343	-13.03078639452245	4.473193047565903	0.3925251111471009	0.006850855586273607	-2.592275912359043	-2.579359900294191e-17	-2.662974049085362e-22	0.4465414683012083	13.76994978831927	-9.711694974955432	3.118425144557868	0.05442678624951492	-2.592275912405782	-3.370331492754067e-19	1.579897433646898e-22	-1.105778085258908e-25	3.99157000313897e-21	-1.316967558108288e-26	3.126811522415445e-17	-2.204255482491712e-21	-2.077892340247699e-14	3.308319504310141e-14	0	8.306830311204284e-19	2.545707182291216e-19	1.27968248845585e-14	1.361964463415064e-16	3.119715539319854e-14	3.355713838890342e-14	1.652780837272913e-14	-4.460626933664427e-19	8.11082505376329e-20
0.7884615384615389	-0.4060129409327462	-13.31684436960002	-171.5605902642182	4.660633141324456e-44	0.93	-2.198441830087218e-29	-3.224542131906399	-13.25664088702213	4.911080693204391	0.4444365180815709	0.007756880556622725	-2.627060363473955	-9.114454138702369e-16	-4.737786070613164e-16	1.395210750492375	13.73468760706223	-12.33864686833124	4.826786655812283	0.08424331943525062	-2.627060363520341	-3.774042095473622e-16	-1.907547372813415e-16	-1.520572426105693e-26	-1.363614555653033e-22	4.16603763585628e-25	6.380742685752896e-16	-1.53687489633439e-17	-6.51280475028522e-14	0	1.794254230709298e-14	-1.39870269780548e-22	3.324896757234271e-23	-8.80202163275568e-15	-5.240274271831255e-14	4.027626400280442e-14	0	0	-7.597177585265575e-23	-7.978529583690575e-23
0.8076923076923082	-2.224055011689953	-12.59365374978025	-171.307637251492	0	0.93	0	-4.755662090493812	-12.50288410862527	3.675404598468748	0.3971845245711685	0.006932177691735209	-2.671942217084136	0	0	-2.541425474828853	12.76476847834999	-6.895857898213661	2.33410200486254	0.04073776506225201	-2.671942217135278	0	0	0	0	0	0	0	0	0	0	0	0	0	0	0	0	0	0	0
0.8269230769230774	-3.256626007991736	-9.045751482233205	-171.1166126016407	0	0.93	0	-4.967432992686708	-9.015978856736606	4.43370154215629	0.3829208389966757	0.006683229414991091	-2.70999343697131	1.284425078171139e-13	1.208504707914285e-21	-4.516861978462211	8.827264153202366	-4.170981855217631	0.6366656868209737	0.01111191246949706	-2.709993437023441	5.500725463627425e-18	1.154259395579766e-21	-1.23577634837397e-25	1.661565519527943e-21	-6.217851387797921e-26	-5.590115818102233e-13	5.168255648912412e-18	4.451098015538568e-13	0	2.292486649504007e-14	-2.81618144009079e-21	-1.175666804401609e-21	6.295151263417786e-14	6.419204916817679e-13	-2.607791956778912e-14	0	0	-4.2548906413911e-22	-4.536071698788062e-22
0.8461538461538467	-2.267804169437387	-12.35586572676856	-166.0238900226229	0	0.93	0	-5.488240839978585	-12.01750390738944	-1.050749005778619	0.4008550159730997	0.006996239851865051	-2.754447112881399	0	0	-5.069181318025406	11.55529014943365	-0.1333059077172811	0.8459625564522556	0.01476483195868026	-2.754447112932506	0	0	0	0	0	0	0	0	0	0	0	0	0	0	0	1.447417015370993e-38	0	0	0
0.865384615384616	-1.748747969494032	-12.5286441475362	-164.1182729886458	0	0.93	0	-5.403911591591738	-11.96469190688847	-2.27532343981239	0.3620335455863684	0.006318677373151114	-2.774325262189314	0	0	-2.361285517286408	11.73250537393047	-3.972092559025031	4.09516113996712	0.07147404529215058	-2.774325262241042	0	0	0	0	0	0	0	0	0	0	0	0	0	0	0	0	0	0	0
0.8846153846153852	-1.063748188002452	-12.86293223604088	-160.8665582223349	1.905590078677121e-41	0.93	1.232482814896326e-31	-5.538182256474096	-11.95227554733915	-5.944033683035636	0.4045518439162933	0.007060761671353509	-2.832225427390285	-8.332897572831068e-16	-4.459150427203087e-16	-4.300411131832832	12.38327502570632	4.628117701271626	1.476092058071276	0.02576266647588311	-2.832225427440315	1.215157396178039e-16	-9.356779417813997e-17	2.74846435331821e-25	-4.739685069196614e-24	5.060690574484417e-26	1.060464776556805e-15	1.062158088021202e-16	-1.517251637073569e-14	0	0	-3.361025378028407e-23	-4.277721257447637e-23	7.253281628856584e-14	-4.680862331487735e-15	3.354878463801385e-14	0	1.44761014945304e-14	5.403419060582079e-23	3.962317779134128e-23
0.9038461538461545	-7.171845716176957	-14.73926949555439	-158.2629375074881	0	0.93	0	-12.57219358790998	-11.1954347877497	-11.17770649013903	0.6849902509023573	0.01195533522230819	-2.853300644186542	0	0	-10.3228319736344	11.92513187910325	5.528022540854462	2.822415904215163	0.0492604503892075	-2.853300644235426	0	0	0	0	0	0	0	0	0	0	0	0	0	0	0	1.260388127042878e-44	0	0	0
0.9230769230769238	-18.12280588243296	-6.689294353004946	-159.8143475590889	0	0.93	0	-19.37974280217616	-0.6132372495282958	-6.834449434377498	0.5103481362846568	0.008907255309584002	-2.970160748798029	1.237675385453825e-15	9.781973429687394e-24	-16.39622855959092	1.118091614543597	0.9788069921029781	4.159610983012279	0.07259890725568219	-2.970160748843961	-1.924211834815898e-17	-6.584915193091945e-22	-6.268593964953093e-26	7.054879121728013e-22	-9.927022578437504e-26	1.854121856718819e-15	8.921687008301403e-18	7.246627551033454e-14	0	0	-5.594361511396695e-22	-1.270932919467484e-22	9.645265463202743e-13	7.36209728062307e-14	-3.484820825220336e-13	0	4.059201624706388e-14	2.098449642811901e-22	2.965087389718193e-22
0.9423076923076931	-20.85028116912153	7.323748377742207	-166.9423522609785	0	0.93	-2.594721856003907e-29	-19.03338994189922	10.35185856679089	2.834038790564012	0.6465417024195171	0.01128428145866996	-3.088931110087102	3.053896194167229e-18	7.21805655077248e-19	-16.27796208604691	-10.44038528761663	-7.53350850634796	3.466144581713085	0.06049563530105497	-3.088931110106524	-1.022783759216309e-17	-1.872233410249393e-19	8.722136531599989e-28	-6.554895632318417e-18	1.910985269231138e-18	7.49400613138657e-18	3.549940370196477e-18	2.35735550786066e-18	0	0	1.597929953765808e-20	3.31541249617685e-19	7.926469065576805e-18	-1.792534050015438e-17	5.778609030405152e-18	0	9.854648105301765e-14	4.253844695759555e-20	-1.185666990585209e-19
0.9615384615384623	-16.00971919262883	12.60841502114832	-169.8133685723323	0	0.93	0	-13.67873807853412	13.88411883851099	6.502856947640391	0.6672211181544589	0.01164520535063342	-3.137334151916171	0	0	-12.59546026989508	-13.77997906958309	-7.249332394698881	1.653775723567596	0.02886383146580613	-3.137334151928231	0	0	0	0	0	0	0	0	0	0	0	0	0	0	0	0	0	0	0
0.9807692307692316	-11.44764436943285	11.3228427520585	-170.5218934412864	0	0.93	0	-9.23547987957407	12.13670320578086	6.247870105081814	0.6192788649278427	0.01080845518100409	-3.171337696413521	-4.562422366274917e-18	5.832672789894971e-24	-8.281506426593191	-11.67369291274239	-7.173425531615856	1.786462912484656	0.03117965978762456	-3.171337696425476	-1.691640490016942e-20	1.655273902179452e-23	5.510765116643489e-26	-2.548972390242169e-17	-1.115052860179423e-25	5.251347065082785e-15	-7.351061901767861e-18	4.892073714452353e-14	0	1.727332828563996e-14	1.315312032281151e-16	1.404595987175279e-16	5.983811033405215e-14	2.490000649611181e-14	-1.995805427609808e-14	0	2.734910851215752e-14	8.349402631474411e-18	-1.946544489405695e-16
